<?xml version="1.0" standalone="no"?>
<!DOCTYPE svg PUBLIC "-//W3C//DTD SVG 20010904//EN"
 "http://www.w3.org/TR/2001/REC-SVG-20010904/DTD/svg10.dtd">
<svg version="1.0" xmlns="http://www.w3.org/2000/svg"
 width="2182.000000pt" height="897.000000pt" viewBox="0 0 2182.000000 897.000000"
 preserveAspectRatio="xMidYMid meet">

<g transform="translate(0.000000,897.000000) scale(0.100000,-0.100000)"
fill="#000000" stroke="none">
<path d="M305 8958 c-163 -18 -229 -99 -255 -312 -12 -95 -10 -260 6 -412 l7
-61 660 -6 c451 -5 665 -3 672 4 6 6 11 97 13 231 6 332 -15 437 -99 497 -83
61 -103 63 -544 65 -220 1 -427 -2 -460 -6z"/>
<path d="M11960 5380 l0 -2470 500 0 500 0 0 430 0 430 206 255 c114 140 209
255 213 254 3 0 143 -165 311 -367 168 -202 424 -510 570 -684 l265 -317 603
-1 603 0 -107 128 c-113 133 -683 805 -1154 1361 -527 621 -494 580 -478 599
32 38 536 612 738 842 119 135 329 374 468 533 l253 287 -618 0 -618 0 -147
-183 c-81 -100 -256 -318 -390 -483 -134 -166 -346 -429 -471 -585 -126 -156
-233 -285 -238 -287 -5 -2 -9 556 -9 1362 l0 1366 -500 0 -500 0 0 -2470z"/>
<path d="M20203 7458 l-493 -111 0 -344 0 -343 -275 0 -275 0 2 -402 3 -403
277 -3 277 -2 4 -1013 3 -1012 27 -122 c115 -521 377 -775 877 -849 79 -12
153 -15 300 -11 212 5 316 22 485 78 96 31 334 144 374 176 l24 20 -137 364
c-75 200 -141 368 -146 373 -5 5 -21 -1 -39 -13 -50 -36 -156 -80 -254 -106
-111 -30 -257 -34 -330 -9 -89 30 -154 119 -176 239 -7 39 -11 357 -11 972 l0
913 513 2 512 3 3 403 2 402 -520 0 -520 0 0 455 c0 250 -3 455 -7 454 -5 0
-230 -50 -500 -111z"/>
<path d="M5980 6734 c-95 -7 -261 -34 -364 -60 -607 -152 -1152 -640 -1366
-1223 -128 -350 -147 -789 -50 -1166 81 -312 230 -571 480 -828 335 -347 710
-539 1175 -602 153 -21 503 -16 640 9 209 38 356 86 530 171 423 206 785 580
966 996 147 340 188 771 109 1162 -98 484 -410 927 -865 1228 -227 151 -494
251 -785 294 -105 16 -367 26 -470 19z m336 -985 c315 -55 606 -287 730 -581
58 -136 69 -202 68 -393 -1 -155 -3 -178 -27 -258 -54 -175 -139 -311 -278
-442 -199 -187 -438 -274 -714 -262 -261 12 -471 104 -653 286 -133 134 -213
273 -258 450 -29 115 -33 325 -9 443 76 362 376 666 739 748 93 21 307 26 402
9z"/>
<path d="M10170 6734 c-433 -31 -832 -197 -1165 -485 -345 -298 -561 -661
-646 -1089 -20 -101 -23 -145 -24 -365 0 -268 5 -317 56 -513 169 -661 747
-1220 1434 -1388 157 -38 308 -54 513 -54 388 0 704 68 1022 221 123 59 370
214 370 232 0 7 -454 656 -524 749 -12 17 -20 13 -97 -38 -88 -59 -147 -88
-245 -122 -315 -108 -732 -93 -989 35 -187 94 -362 274 -446 458 -89 196 -109
464 -52 680 19 73 91 231 129 282 109 148 240 258 389 329 140 66 232 86 422
91 289 9 491 -37 665 -153 38 -26 73 -43 77 -38 5 5 120 142 256 304 137 162
271 321 298 353 l49 57 -23 20 c-60 51 -235 161 -344 217 -193 99 -409 166
-637 198 -105 15 -389 26 -488 19z"/>
<path d="M17155 6730 c-540 -46 -1002 -296 -1346 -727 -357 -448 -488 -1009
-383 -1638 30 -176 72 -310 151 -475 84 -177 168 -296 312 -441 184 -185 370
-315 592 -415 303 -136 592 -194 969 -194 407 0 762 73 1122 231 105 46 288
141 288 149 0 16 -371 751 -377 748 -5 -2 -51 -24 -103 -49 -294 -143 -636
-211 -985 -196 -448 19 -732 184 -889 517 -24 52 -51 119 -60 148 l-15 52
1349 0 1349 0 5 33 c12 73 26 294 26 397 0 586 -296 1164 -783 1529 -350 262
-751 370 -1222 331z m274 -870 c292 -37 555 -213 673 -452 34 -70 78 -195 78
-224 0 -12 -134 -14 -880 -14 l-880 0 6 28 c12 54 105 236 154 303 28 37 78
93 111 123 211 195 450 272 738 236z"/>
</g>
</svg>
