<?xml version="1.0" standalone="no"?>
<!DOCTYPE svg PUBLIC "-//W3C//DTD SVG 20010904//EN"
 "http://www.w3.org/TR/2001/REC-SVG-20010904/DTD/svg10.dtd">
<svg version="1.0" xmlns="http://www.w3.org/2000/svg"
 width="4364.000000pt" height="1793.000000pt" viewBox="0 0 4364.000000 1793.000000"
 preserveAspectRatio="xMidYMid meet">

<g transform="translate(0.000000,1793.000000) scale(0.100000,-0.100000)"
fill="#000000" stroke="none">
<path d="M714 17919 c-287 -15 -437 -94 -529 -283 -74 -151 -99 -321 -98 -666
1 -223 25 -626 39 -639 3 -3 605 -7 1338 -9 l1333 -3 7 63 c28 266 30 724 5
958 -32 299 -87 404 -256 493 -162 85 -342 105 -814 90 -281 -9 -541 -9 -819
0 -41 1 -134 -1 -206 -4z"/>
<path d="M23920 10755 l0 -4935 1005 0 1005 0 0 863 0 863 396 489 c217 270
403 498 413 508 17 17 68 -43 1162 -1352 l1144 -1370 1209 -1 1209 0 -20 23
c-146 160 -3483 4112 -3480 4121 3 6 173 202 378 436 206 234 868 986 1472
1673 l1097 1247 -1238 0 -1237 0 -1250 -1550 -1250 -1549 -3 2734 -2 2735
-1005 0 -1005 0 0 -4935z"/>
<path d="M40403 14907 l-983 -221 0 -683 0 -683 -550 0 -550 0 0 -810 0 -810
555 0 554 0 4 -1912 c4 -2068 2 -1974 57 -2305 80 -473 260 -885 514 -1175
290 -332 730 -539 1306 -613 168 -22 579 -31 750 -16 512 44 999 203 1461 477
87 52 109 69 104 82 -4 9 -130 346 -282 747 -151 402 -278 733 -282 738 -4 4
-32 -11 -62 -34 -68 -51 -133 -84 -281 -143 -240 -94 -435 -136 -639 -136
-210 0 -329 41 -445 155 -74 72 -133 187 -166 321 l-22 89 -3 1863 -3 1862
1030 0 1030 0 0 810 0 810 -1040 0 -1040 0 0 905 c0 856 -1 905 -17 904 -10
-1 -460 -100 -1000 -222z"/>
<path d="M11970 13460 c-469 -36 -890 -135 -1285 -302 -934 -394 -1761 -1218
-2134 -2127 -237 -577 -326 -1239 -256 -1904 78 -745 357 -1399 850 -1994 109
-131 363 -388 500 -505 621 -531 1314 -834 2135 -935 184 -22 760 -25 945 -5
806 89 1461 360 2095 866 159 127 507 475 632 631 392 491 636 1006 753 1590
59 298 69 411 70 785 0 351 -6 435 -51 700 -141 840 -579 1601 -1269 2207
-645 567 -1370 887 -2215 978 -173 19 -609 27 -770 15z m521 -1951 c470 -47
891 -258 1224 -612 357 -379 525 -802 525 -1325 0 -328 -56 -583 -184 -847
-95 -194 -193 -332 -361 -504 -396 -407 -853 -601 -1418 -601 -175 0 -276 10
-431 41 -642 130 -1234 659 -1440 1289 -161 495 -115 1083 121 1520 220 408
593 742 1022 916 108 44 318 99 436 113 50 6 101 13 115 15 57 8 295 5 391 -5z"/>
<path d="M20350 13460 c-954 -74 -1725 -406 -2438 -1053 -494 -447 -871 -1015
-1070 -1612 -199 -596 -245 -1316 -126 -1965 138 -751 491 -1407 1064 -1980
672 -672 1427 -1039 2380 -1157 182 -22 793 -25 990 -5 455 47 838 134 1213
273 177 66 489 214 644 305 170 100 462 300 463 317 0 7 -1059 1507 -1080
1531 -5 5 -53 -25 -108 -66 -289 -218 -656 -354 -1102 -410 -167 -21 -677 -18
-815 5 -458 76 -809 246 -1100 534 -404 399 -592 881 -572 1467 18 539 201
958 578 1321 407 392 904 571 1534 552 527 -16 916 -130 1216 -358 l77 -58
608 720 c335 396 609 726 609 732 0 15 -119 107 -280 216 -566 383 -1176 601
-1897 676 -173 19 -630 27 -788 15z"/>
<path d="M34445 13464 c-33 -3 -127 -11 -210 -19 -1057 -107 -1950 -603 -2636
-1465 -449 -564 -711 -1216 -796 -1980 -23 -216 -23 -690 1 -930 118 -1176
617 -2032 1556 -2669 179 -121 283 -182 460 -271 465 -233 954 -373 1520 -435
196 -22 700 -31 915 -16 857 58 1628 285 2382 700 l92 51 -370 748 c-204 411
-374 751 -378 755 -5 5 -64 -21 -132 -57 -326 -171 -716 -302 -1107 -370 -290
-51 -412 -60 -792 -61 -382 0 -449 6 -700 61 -591 132 -1018 471 -1254 999
-48 108 -126 331 -126 360 0 13 331 15 2700 15 2153 0 2700 3 2700 13 0 6 14
181 31 387 33 403 33 502 3 798 -72 709 -323 1349 -750 1914 -407 537 -920
954 -1474 1197 -305 133 -602 212 -965 256 -125 16 -543 27 -670 19z m385
-1749 c378 -45 687 -174 972 -404 205 -165 372 -398 472 -658 35 -90 86 -271
86 -305 0 -17 -90 -18 -1761 -18 l-1761 0 7 33 c11 48 92 251 137 341 276 550
793 933 1366 1011 129 17 340 18 482 0z"/>
</g>
</svg>
